<svg width="11" height="27" viewBox="0 0 11 27" fill="none" xmlns="http://www.w3.org/2000/svg">
<path fill-rule="evenodd" clip-rule="evenodd" d="M0.00323486 12.4024C0.00323486 12.7021 0.0856293 13.3591 0.147608 13.8083L1.40105 12.2544L2.37813 11.1213C2.84042 10.6174 3.37417 10.2623 3.64615 10.3579C3.92031 10.4534 4.06907 10.7749 3.98011 11.0746L0.286881 23.3057C-0.0973902 24.5766 0.549382 25.9372 1.73282 26.3441C2.00553 26.4367 2.28115 26.4717 2.55167 26.4542L2.62604 26.4586C5.45083 26.4586 7.38604 24.3805 9.06313 21.8626C9.06313 21.563 8.98146 20.9074 8.92021 20.4568L7.66532 22.0099L6.68896 23.1431C6.2274 23.6491 5.65208 24.0027 5.37938 23.9072C5.12635 23.8175 4.97907 23.5375 5.02938 23.2583L8.74813 10.9689C9.1324 9.69796 8.48563 8.33806 7.30219 7.93119C7.02803 7.83494 6.45417 7.80577 6.44105 7.80577C3.61553 7.80577 1.68105 9.88462 0.00323486 12.4024ZM5.82636 3.48181C5.82636 4.99629 6.97115 6.02442 8.38355 6.02442C9.79595 6.02442 10.9407 4.99629 10.9407 3.48181C10.9407 1.96588 9.79595 0.938477 8.38355 0.938477C6.97115 0.938477 5.82636 1.96588 5.82636 3.48181Z" fill="#00B2FF"/>
</svg>
