<svg width="40" height="40" viewBox="0 0 40 40" fill="none" xmlns="http://www.w3.org/2000/svg">
<path d="M15 36.6668H25C33.3333 36.6668 36.6666 33.3335 36.6666 25.0002V15.0002C36.6666 6.66683 33.3333 3.3335 25 3.3335H15C6.66665 3.3335 3.33331 6.66683 3.33331 15.0002V25.0002C3.33331 33.3335 6.66665 36.6668 15 36.6668Z" stroke="#00B2FF" stroke-width="1.5" stroke-linecap="round" stroke-linejoin="round"/>
<path d="M20 25.8332C20.7661 25.8332 21.5246 25.6823 22.2323 25.3891C22.9401 25.096 23.5831 24.6663 24.1248 24.1246C24.6665 23.583 25.0962 22.9399 25.3893 22.2322C25.6825 21.5244 25.8334 20.7659 25.8334 19.9998C25.8334 19.2338 25.6825 18.4753 25.3893 17.7675C25.0962 17.0598 24.6665 16.4167 24.1248 15.875C23.5831 15.3334 22.9401 14.9037 22.2323 14.6105C21.5246 14.3174 20.7661 14.1665 20 14.1665C18.4529 14.1665 16.9692 14.7811 15.8752 15.875C14.7813 16.969 14.1667 18.4527 14.1667 19.9998C14.1667 21.5469 14.7813 23.0307 15.8752 24.1246C16.9692 25.2186 18.4529 25.8332 20 25.8332Z" stroke="#00B2FF" stroke-width="1.5" stroke-linecap="round" stroke-linejoin="round"/>
<path d="M29.3933 11.6665H29.4137" stroke="#00B2FF" stroke-width="2" stroke-linecap="round" stroke-linejoin="round"/>
</svg>
